<?xml version="1.0" encoding="utf-8"?>
<!-- Generator: Adobe Illustrator 16.0.0, SVG Export Plug-In . SVG Version: 6.00 Build 0)  -->
<!DOCTYPE svg PUBLIC "-//W3C//DTD SVG 1.1//EN" "http://www.w3.org/Graphics/SVG/1.1/DTD/svg11.dtd">
<svg version="1.1" id="Capa_1" xmlns="http://www.w3.org/2000/svg" xmlns:xlink="http://www.w3.org/1999/xlink" x="0px" y="0px"
	 width="59.352px" height="52px" viewBox="15.078 0 59.352 52" enable-background="new 15.078 0 59.352 52" xml:space="preserve">
<g>
	<path fill="#FFFFFF" d="M47.378,40.676c5.406-4.725,7.315-10.224,7.225-18.286c-0.04-0.167-0.11-0.2-0.329-0.109
		c-1.985,1.106-3.382,2.705-4.727,4.452c-0.238,0.349,0.428,0.699,0.184,1.121c-0.37,0.645-1.543,1.692-2.446,1.545
		c-0.567-0.087-0.256-1.247-0.09-1.729c1.839-5.376,5.938-11.106,10.371-13.592c0.646-0.388,0.885-0.864,0.757-1.341
		c-0.183-0.725-0.775-1.201-2.079-1.472c-0.146-0.039-0.129-0.114,0-0.114c0.809-0.036,1.065-0.256,1.304-0.437
		c0.076-0.076,0.038-0.092-0.073-0.076c-0.606,0.086-1.483-0.073-1.817-0.314c-0.128-0.086-0.149-0.163,0-0.105
		c0.476,0.144,1.325-0.096,1.76-0.411c0.058-0.052,0.058-0.09-0.016-0.069c-0.642,0.126-1.636,0.069-2.169-0.482
		c-0.072-0.127-0.038-0.127,0.033-0.091c1.458,0.406,2.341-0.751,2.929-1.142c1.063-0.899,2.465-1.044,3.641-0.585
		c1.3,0.551,2.299,1.854,2.373,3.533c0,0.328-0.733,0.161-0.718,0.419c0.016,1.123-0.792,1.807-1.579,2.119
		c-0.316,0.126-0.628,0.291-0.482,0.673c0.81,1.919,1.656,3.295,2.521,4.359c0.609,0.779,1.176,1.385,1.783,1.883
		c0.884,0.749,2.133,1.303,3.514,1.561c1.032,0.202,1.655-0.292,2.374-0.036c1.194,0.477,1.69,1.137,1.379,1.688
		c-0.5,0.625-2.467,0.607-3.66,0.573c-2.209-0.04-4.14-0.499-5.923-1.382c-0.203-0.126-0.332-0.016-0.349,0.148
		c-0.111,0.884-0.186,1.675-0.331,2.579c-0.021,0.182,0.017,0.365,0.165,0.477c4.838,2.518,7.245,5.278,8.682,11.55
		c0.11,0.4,0.238,0.603,0.441,0.66c0.754,0.148,1.582,0.021,2.372,0.132c0.145,0.033,0.404,0.074,0.404,0.343
		c0,0.19-0.129,0.315-0.371,0.406l-3.273,1.234c-0.479,0.132-0.99-0.108-1.196-0.534c-1.764-3.877-5.401-7.116-9.287-7.098
		c-0.217-0.019-0.289,0.033-0.347,0.166c-2.244,4.888-6.088,7.064-9.693,8.552c-0.203,0.091-0.344,0.297-0.13,0.514
		c0.403,0.519,0.79,0.901,1.345,1.379c0.404,0.332,0.127,0.537-0.481,0.483c-1.343-0.193-2.647-0.757-3.952-1.714
		C46.897,41.686,46.81,41.188,47.378,40.676z"/>
	<path fill="#FFFFFF" d="M28.914,34.712h-2.504c-0.384,0-0.496-0.232-0.479-0.496l1.545-15.56c0.038-0.383,0.261-0.495,0.591-0.495
		H30.4c0.315,0,0.499,0.203,0.458,0.495l-1.558,15.657C29.281,34.547,29.151,34.712,28.914,34.712z"/>
	<path fill="#FFFFFF" d="M24.441,23.033l-0.295,2.173c-0.017,0.202-0.163,0.313-0.399,0.331h-1.841
		c-1.822-0.056-3.532,1.142-3.571,3.087c0,1.984,1.324,3.223,3.332,3.171h1.488c0.237,0.012,0.37,0.124,0.388,0.326l-0.24,2.168
		c0.018,0.298-0.26,0.423-0.478,0.442c-0.59,0-1.124,0-1.785,0c-3.696,0.058-5.996-2.426-5.96-6.09
		c0.058-3.619,2.907-6.102,6.439-6.046c0.664,0,1.898,0,2.466,0C24.224,22.613,24.479,22.741,24.441,23.033z"/>
	<path fill="#FFFFFF" d="M39.525,28.366l4.101,5.664c0.167,0.242,0.035,0.701-0.368,0.682h-2.886c-0.428,0-0.721-0.178-0.924-0.479
		l-3.292-4.282l-0.443,4.377c-0.015,0.242-0.145,0.385-0.386,0.403h-2.5c-0.388,0-0.498-0.234-0.459-0.498l1.527-15.554
		c0.036-0.405,0.255-0.517,0.588-0.517h2.332c0.316,0.019,0.499,0.203,0.46,0.517l-0.862,8.607l4.155-4.103
		c0.407-0.404,0.646-0.368,1.146-0.368h2.483c0.529,0.017,0.548,0.407,0.162,0.774L39.525,28.366L39.525,28.366z"/>
	<path fill="#FFFFFF" d="M57.932,40.437c-2.132-0.404-3.475-0.608-6.064-0.681c-2.507-0.055-5.041,0.089-7.67,0.441
		c-8.279,1.226-1.807,2.816-0.095,3.091c1.858,0.37,6.619,0.694,7.689,0.511c0.233-0.053,0.163-0.255-0.094-0.494
		c-0.275-0.26-0.811-0.81-0.987-1.103c-0.281-0.332-0.281-0.423,0.292-0.533c1.763-0.365,4.062-0.463,6.507-0.422
		C59.313,41.302,61.612,41.205,57.932,40.437z"/>
</g>
</svg>
